<svg width="1060" height="520" viewBox="0 0 1060 520" fill="none" xmlns="http://www.w3.org/2000/svg">
<path d="M543.438 235.659C549.888 223.999 558.406 218.096 567.556 218.499V218.5C576.621 218.985 584.495 225.785 589.791 238.029V238.03L615.874 298.947V298.948C620.64 310.042 619.491 322.698 612.833 332.808L612.829 332.814C606.255 343.085 595.082 349.083 583 349.083H476.583C464.089 349.083 452.667 342.756 446.092 332.072C439.517 321.386 438.941 308.403 444.531 297.14L458.864 268.39C463.474 259.17 470.846 253.475 479.054 252.581C487.259 251.687 495.685 255.742 502.107 263.725V263.726L503.94 266.059L503.946 266.066C507.66 270.624 512.054 273.183 516.456 272.748L516.457 272.749C520.852 272.397 524.808 269.241 527.687 264.077V264.076L543.437 235.659H543.438ZM566.935 230.25C564.796 230.119 562.427 231.187 560.126 233.117C557.81 235.06 555.503 237.924 553.481 241.504L553.479 241.507L537.73 269.923C532.961 278.475 525.51 283.768 517.459 284.501C509.658 285.132 501.657 281.49 495.558 274.235L494.974 273.522L493.143 271.191H493.142C489.588 266.54 485.459 264.084 481.333 264.083C481.018 264.083 480.637 264.081 480.246 264.173C475.851 264.631 471.915 268.135 469.137 273.607L469.136 273.61L454.802 302.36C450.974 309.933 451.402 318.866 455.824 326.094C460.249 333.328 468.078 337.667 476.583 337.667H582.917C591.252 337.667 598.658 333.665 603.25 326.692C607.699 319.937 608.558 311.895 605.591 304.438L605.292 303.718L579.209 242.803C577.61 239.016 575.684 235.938 573.599 233.778C571.518 231.622 569.237 230.341 566.936 230.25H566.935Z" fill="#828282" stroke="#828282"/>
<path d="M488.083 170.917C505.057 170.917 518.833 184.693 518.833 201.667C518.833 218.64 505.057 232.417 488.083 232.417C471.192 232.417 457.333 218.639 457.333 201.667C457.333 184.693 471.11 170.917 488.083 170.917ZM488.083 182.417C477.474 182.417 468.833 191.057 468.833 201.667C468.833 212.276 477.474 220.917 488.083 220.917C498.693 220.917 507.333 212.276 507.333 201.667C507.333 191.057 498.693 182.417 488.083 182.417Z" fill="#828282" stroke="#828282"/>
</svg>
